<svg viewBox="0 0 2.174 1.438" xmlns="http://www.w3.org/2000/svg" width="20" height="13.224"><path d="M0.81 0.429V0.299q0.019 -0.001 0.038 -0.002C1.204 0.286 1.437 0.603 1.437 0.603s-0.251 0.349 -0.521 0.349q-0.054 0 -0.105 -0.017V0.542c0.138 0.017 0.166 0.078 0.249 0.216l0.185 -0.155s-0.135 -0.177 -0.362 -0.177a0.667 0.667 0 0 0 -0.072 0.003m0 -0.429v0.194l0.038 -0.002c0.494 -0.017 0.816 0.405 0.816 0.405S1.295 1.046 0.91 1.046q-0.05 0 -0.099 -0.009v0.12q0.041 0.005 0.082 0.006c0.358 0 0.618 -0.183 0.869 -0.399 0.042 0.034 0.212 0.114 0.247 0.15 -0.238 0.2 -0.794 0.361 -1.11 0.361a1 1 0 0 1 -0.088 -0.005v0.169H2.173V0zm0 0.935v0.102c-0.331 -0.059 -0.423 -0.404 -0.423 -0.404s0.159 -0.176 0.423 -0.205v0.112h-0.001c-0.138 -0.017 -0.247 0.113 -0.247 0.113s0.062 0.218 0.248 0.282M0.222 0.619s0.196 -0.29 0.589 -0.32V0.194C0.376 0.229 0 0.597 0 0.597s0.213 0.616 0.81 0.672V1.157C0.372 1.102 0.222 0.619 0.222 0.619" fill="#76b900"/></svg>